<svg id="SvgjsSvg1001" width="288" height="288" xmlns="http://www.w3.org/2000/svg" version="1.1" xmlns:xlink="http://www.w3.org/1999/xlink" xmlns:svgjs="http://svgjs.com/svgjs"><defs id="SvgjsDefs1002"></defs><g id="SvgjsG1008"><svg xmlns="http://www.w3.org/2000/svg" width="288" height="288" enable-background="new 0 0 100 100" viewBox="0 0 100 100"><path d="M49.918,95.866c25.352,0,45.978-20.625,45.978-45.978c0-25.352-20.625-45.977-45.978-45.977S3.94,24.536,3.94,49.888   C3.94,75.241,24.566,95.866,49.918,95.866z M49.918,5.911c24.25,0,43.978,19.728,43.978,43.977   c0,24.25-19.728,43.978-43.978,43.978S5.94,74.138,5.94,49.888C5.94,25.639,25.668,5.911,49.918,5.911z" fill="#ffffff" class="color000 svgShape"></path><path d="M35.216 71.007H64.62c3.539 0 6.417-2.878 6.417-6.417V45.197c0-.552-.448-1-1-1h-8.501c-.349 0-.672.182-.854.479-.182.298-.195.668-.036.979.883 1.716 1.331 3.568 1.331 5.504 0 6.649-5.41 12.058-12.059 12.058-6.649 0-12.059-5.409-12.059-12.058 0-1.937.448-3.789 1.331-5.504.16-.31.146-.681-.036-.978-.181-.298-.505-.479-.854-.479h-8.502c-.552 0-1 .448-1 1v19.394C28.799 68.129 31.677 71.007 35.216 71.007zM30.799 46.197h5.963c-.6 1.579-.902 3.242-.902 4.961 0 7.751 6.307 14.058 14.059 14.058 7.752 0 14.059-6.307 14.059-14.058 0-1.719-.303-3.382-.902-4.961h5.962v18.394c0 2.435-1.981 4.417-4.417 4.417H35.216c-2.436 0-4.417-1.981-4.417-4.417V46.197zM61.388 41.37h2.771c2.3 0 4.171-1.871 4.171-4.17v-2.771c0-2.3-1.871-4.171-4.171-4.171h-2.771c-2.3 0-4.171 1.871-4.171 4.171V37.2C57.217 39.499 59.088 41.37 61.388 41.37zM59.217 34.428c0-1.197.974-2.171 2.171-2.171h2.771c1.197 0 2.171.974 2.171 2.171V37.2c0 1.196-.974 2.17-2.171 2.17h-2.771c-1.197 0-2.171-.974-2.171-2.17V34.428z" fill="#ffffff" class="color000 svgShape"></path><path d="M49.918,60.419c5.106,0,9.261-4.155,9.261-9.261c0-5.107-4.155-9.262-9.261-9.262s-9.261,4.155-9.261,9.262   C40.657,56.264,44.812,60.419,49.918,60.419z M49.918,43.896c4.004,0,7.261,3.258,7.261,7.262s-3.257,7.261-7.261,7.261   s-7.261-3.257-7.261-7.261S45.915,43.896,49.918,43.896z" fill="#ffffff" class="color000 svgShape"></path><path d="M35.216,74.876H64.62c5.671,0,10.286-4.614,10.286-10.286V35.186c0-5.671-4.614-10.285-10.286-10.285H35.216   c-5.671,0-10.286,4.614-10.286,10.285v29.405C24.93,70.262,29.544,74.876,35.216,74.876z M26.93,35.186   c0-4.568,3.717-8.285,8.286-8.285H64.62c4.569,0,8.286,3.717,8.286,8.285v29.405c0,4.569-3.717,8.286-8.286,8.286H35.216   c-4.569,0-8.286-3.717-8.286-8.286V35.186z" fill="#ffffff" class="color000 svgShape"></path></svg></g></svg>